<svg width="1440" height="634" viewBox="0 0 1440 634" fill="none" xmlns="http://www.w3.org/2000/svg">
<mask id="mask0_1256_15" style="mask-type:alpha" maskUnits="userSpaceOnUse" x="0" y="0" width="1440" height="634">
<rect width="1440" height="634" fill="white"/>
</mask>
<g mask="url(#mask0_1256_15)">
<rect x="1242.07" y="-112.306" width="333.786" height="122.1" transform="rotate(34.2217 1242.07 -112.306)" fill="#C1D962"/>
<rect x="1155.25" y="0.900391" width="375.739" height="18.4781" rx="9.23904" transform="rotate(34.2217 1155.25 0.900391)" fill="#C1D962"/>
<rect x="1073.63" y="-0.64502" width="507.927" height="172.857" rx="86.4287" transform="rotate(34.2217 1073.63 -0.64502)" fill="#C1D962"/>
<rect x="729.513" y="50.0123" width="801.625" height="168.45" rx="84.225" transform="rotate(34.2217 729.513 50.0123)" fill="#C1D962"/>
<rect x="685.002" y="327.221" width="504.615" height="144.715" rx="72.3575" transform="rotate(34.2217 685.002 327.221)" fill="#C1D962"/>
<rect x="799.867" y="40.6141" width="588.546" height="24.3215" rx="12.1607" transform="rotate(34.2217 799.867 40.6141)" fill="#C1D962"/>
<rect x="721.428" y="296.463" width="502.247" height="24.3215" rx="12.1607" transform="rotate(34.2217 721.428 296.463)" fill="#C1D962"/>
<rect x="765.104" y="605.298" width="180.684" height="24.3215" rx="12.1607" transform="rotate(34.2217 765.104 605.298)" fill="#C1D962"/>
</g>
</svg>
