<svg width="830" height="634" viewBox="0 0 830 634" fill="none" xmlns="http://www.w3.org/2000/svg">
<mask id="mask0_1297_34" style="mask-type:alpha" maskUnits="userSpaceOnUse" x="0" y="0" width="830" height="634">
<path d="M0 0H830V634H0V0Z" fill="white"/>
</mask>
<g mask="url(#mask0_1297_34)">
<rect x="632.069" y="-112.306" width="333.786" height="122.1" transform="rotate(34.2217 632.069 -112.306)" fill="#C1D962"/>
<rect x="545.252" y="0.900269" width="375.739" height="18.4781" rx="9.23904" transform="rotate(34.2217 545.252 0.900269)" fill="#C1D962"/>
<rect x="463.634" y="-0.645142" width="507.927" height="172.857" rx="86.4287" transform="rotate(34.2217 463.634 -0.645142)" fill="#C1D962"/>
<rect x="119.513" y="50.0122" width="801.625" height="168.45" rx="84.225" transform="rotate(34.2217 119.513 50.0122)" fill="#C1D962"/>
<rect x="75.0024" y="327.221" width="504.615" height="144.715" rx="72.3575" transform="rotate(34.2217 75.0024 327.221)" fill="#C1D962"/>
<rect x="189.867" y="40.614" width="588.546" height="24.3215" rx="12.1607" transform="rotate(34.2217 189.867 40.614)" fill="#C1D962"/>
<rect x="111.428" y="296.463" width="502.247" height="24.3215" rx="12.1607" transform="rotate(34.2217 111.428 296.463)" fill="#C1D962"/>
<rect x="155.104" y="605.297" width="180.684" height="24.3215" rx="12.1607" transform="rotate(34.2217 155.104 605.297)" fill="#C1D962"/>
</g>
</svg>
